<svg class="hidden">
    <symbol id='view__demo' width="34" height="34" viewBox="0 0 34 34" xmlns="http://www.w3.org/2000/svg">
        <path fill-rule="evenodd" clip-rule="evenodd" d="M17 1.16675C25.7432 1.16675 32.8333 8.25533 32.8333 17.0001C32.8333 25.7448 25.7432 32.8334 17 32.8334C8.25524 32.8334 1.16666 25.7448 1.16666 17.0001C1.16666 8.25533 8.25524 1.16675 17 1.16675Z" stroke="currentColor" stroke-width="1.5" stroke-linecap="round" stroke-linejoin="round"/>
        <path fill-rule="evenodd" clip-rule="evenodd" d="M22 16.9919C22 15.64 15.0709 11.3152 14.2848 12.0928C13.4988 12.8705 13.4232 21.0401 14.2848 21.891C15.1464 22.7449 22 18.3438 22 16.9919Z" stroke="currentColor" stroke-width="1.5" stroke-linecap="round" stroke-linejoin="round"/>
    </symbol>

    <symbol id="decor__yellow" width="74" height="74" viewBox="0 0 74 74" fill="none" xmlns="http://www.w3.org/2000/svg">
        <rect x="12.4582" y="12.458" width="48.5725" height="48.5725" rx="10" fill="#FBC75E"/>
        <g clip-path="url(#clip0_0_35)">
        <path d="M37.0574 33.5916C41.1995 33.5916 44.5574 32.4723 44.5574 31.0916C44.5574 29.7108 41.1995 28.5916 37.0574 28.5916C32.9152 28.5916 29.5574 29.7108 29.5574 31.0916C29.5574 32.4723 32.9152 33.5916 37.0574 33.5916Z" stroke="#F8F8FA" stroke-width="1.66667" stroke-linecap="round" stroke-linejoin="round"/>
        <path d="M44.5569 36.9248C44.5569 38.3081 41.2236 39.4248 37.0569 39.4248C32.8903 39.4248 29.5569 38.3081 29.5569 36.9248" stroke="#F8F8FA" stroke-width="1.66667" stroke-linecap="round" stroke-linejoin="round"/>
        <path d="M29.5569 31.0916V42.7582C29.5569 44.1416 32.8903 45.2582 37.0569 45.2582C41.2236 45.2582 44.5569 44.1416 44.5569 42.7582V31.0916" stroke="#F8F8FA" stroke-width="1.66667" stroke-linecap="round" stroke-linejoin="round"/>
        </g>
        <defs>
        <clipPath id="clip0_0_35">
        <rect width="20" height="20" fill="white" transform="translate(27.0574 26.9248)"/>
        </clipPath>
        </defs>
    </symbol>

    <symbol id='decor__red' width="41" height="41" viewBox="0 0 41 41" fill="none" xmlns="http://www.w3.org/2000/svg">
        <rect x="0.49469" y="0.494629" width="40" height="40" rx="10" fill="#FFAA94"/>
        <path d="M27.9947 22.9946C27.9947 23.4367 27.8191 23.8606 27.5065 24.1731C27.194 24.4857 26.7701 24.6613 26.328 24.6613H16.328L12.9947 27.9946V14.6613C12.9947 14.2193 13.1703 13.7953 13.4828 13.4828C13.7954 13.1702 14.2193 12.9946 14.6614 12.9946H26.328C26.7701 12.9946 27.194 13.1702 27.5065 13.4828C27.8191 13.7953 27.9947 14.2193 27.9947 14.6613V22.9946Z" stroke="white" stroke-width="1.66667" stroke-linecap="round" stroke-linejoin="round"/>
    </symbol>


    <symbol id='decor__violet' width="41" height="41" viewBox="0 0 41 41" fill="none" xmlns="http://www.w3.org/2000/svg">
        <rect x="0.494896" y="0.494629" width="40" height="40" rx="10" fill="#4535AF"/>
        <path d="M14 19.7331L18.1739 23.9998L26 15.9998" stroke="white" stroke-width="2"/>
    </symbol>

    <symbol id='collabs__unsplash' width="34" height="32" viewBox="0 0 34 32" fill="none" xmlns="http://www.w3.org/2000/svg">
        <rect x="11" width="12" height="9" fill="black"/>
        <rect y="23" width="34" height="9" fill="black"/>
        <rect x="24" y="14" width="10" height="18" fill="black"/>
        <rect y="14" width="10" height="18" fill="black"/>
    </symbol>

    <symbol id='collabs__notion' width="38" height="35" viewBox="0 0 38 35" fill="none" xmlns="http://www.w3.org/2000/svg">
        <path d="M28.3878 13.4545V28H26.044L19.1903 18.0923H19.0696V28H16.4347V13.4545H18.7926L25.6392 23.3693H25.767V13.4545H28.3878Z" fill="black"/>
        <rect x="9" y="8" width="28" height="26" stroke="black" stroke-width="2"/>
        <path d="M35.3389 6L29.624 1H2.66113L8.37598 6H35.3389Z" stroke="black" stroke-width="2"/>
        <path d="M8 7L0 0V28L8 35V7Z" fill="black"/>
    </symbol>

    <symbol id='collabs__intercom' width="30" height="30" viewBox="0 0 30 30" fill="none" xmlns="http://www.w3.org/2000/svg">
        <rect width="30" height="30" rx="3" fill="black"/>
        <rect x="4" y="7" width="2" height="12" fill="white"/>
        <rect x="9" y="4" width="2" height="18" fill="white"/>
        <rect x="14" y="4" width="2" height="18" fill="white"/>
        <rect x="19" y="4" width="2" height="18" fill="white"/>
        <path d="M5 24C7.83333 26.2639 16 29.4333 26 24" stroke="white" stroke-width="2" stroke-linecap="round"/>
        <rect x="24" y="7" width="2" height="12" fill="white"/>
    </symbol>

    <symbol id='collabs__descript' width="23" height="30" viewBox="0 0 23 30" fill="none" xmlns="http://www.w3.org/2000/svg">
        <path fill-rule="evenodd" clip-rule="evenodd" d="M17.0711 1.41723C18.9464 2.32466 20 3.5554 20 4.83871H10L0 4.83871C0 3.5554 1.05357 2.32466 2.92893 1.41722C4.8043 0.509791 7.34784 0 10 0C12.6522 0 15.1957 0.509791 17.0711 1.41723ZM2.92893 28.5828C1.05357 27.6753 0 26.4446 0 25.1613H10L20 25.1613C20 26.4446 18.9464 27.6753 17.0711 28.5828C15.1957 29.4902 12.6522 30 10 30C7.34783 30 4.8043 29.4902 2.92893 28.5828ZM23 17.4194V21.2903H17V17.4194H23ZM6 8.70968H0V12.5806H6V8.70968ZM11 8.70968H23V12.5806H11V8.70968ZM12 17.4194H0V21.2903H12V17.4194Z" fill="black"/>
    </symbol>

    <symbol id="collabs__grammarly" width="30" height="30" viewBox="0 0 30 30" fill="none" xmlns="http://www.w3.org/2000/svg">
        <circle cx="15" cy="15" r="15" fill="black"/>
        <path d="M21 15C21 18.866 17.866 22 14 22C10.134 22 7 18.866 7 15C7 11.134 10.134 8 14 8C15.9587 8 17.7295 8.80447 19 10.101" stroke="white" stroke-width="2"/>
        <path d="M17 17L21 15L23.5 18.5" stroke="white" stroke-width="2"/>
    </symbol>

    <symbol id='star' width="26" height="24" viewBox="0 0 26 24" xmlns="http://www.w3.org/2000/svg">
        <path d="M13 0L15.9187 8.98278H25.3637L17.7225 14.5344L20.6412 23.5172L13 17.9656L5.35879 23.5172L8.27747 14.5344L0.636266 8.98278H10.0813L13 0Z" fill="currentColor"/>
    </symbol>

    <symbol id='support__publishing' width="28" height="26" viewBox="0 0 28 26" fill="none" xmlns="http://www.w3.org/2000/svg">
      <path d="M26.5 13H21.5L17.75 24.25L10.25 1.75L6.5 13H1.5" stroke="#54BD95" stroke-width="2" stroke-linecap="round" stroke-linejoin="round"/>
    </symbol>

    <symbol id='support__analytics' width="28" height="28" viewBox="0 0 28 28" fill="none" xmlns="http://www.w3.org/2000/svg">
        <path d="M25.512 18.8626C24.7168 20.7432 23.473 22.4004 21.8894 23.6892C20.3057 24.9781 18.4305 25.8594 16.4276 26.2561C14.4247 26.6528 12.3551 26.5528 10.3997 25.9648C8.44436 25.3769 6.66281 24.3189 5.2108 22.8834C3.75879 21.4479 2.68055 19.6785 2.07032 17.73C1.4601 15.7815 1.33648 13.7132 1.71027 11.7059C2.08407 9.69857 2.9439 7.81338 4.21458 6.21513C5.48527 4.61689 7.12813 3.35424 8.99953 2.5376" stroke="#54BD95" stroke-width="2" stroke-linecap="round" stroke-linejoin="round"/>
        <path d="M26.5 14C26.5 12.3585 26.1767 10.733 25.5485 9.21646C24.9203 7.69989 23.9996 6.3219 22.8388 5.16117C21.6781 4.00043 20.3001 3.07969 18.7835 2.45151C17.267 1.82332 15.6415 1.5 14 1.5V14H26.5Z" stroke="#54BD95" stroke-width="2" stroke-linecap="round" stroke-linejoin="round"/>
    </symbol>

    <symbol id='support__engagement' width="26" height="26" viewBox="0 0 26 26" fill="none" xmlns="http://www.w3.org/2000/svg">
        <path d="M20.5 1.75C19.5054 1.75 18.5516 2.14509 17.8483 2.84835C17.1451 3.55161 16.75 4.50544 16.75 5.5V20.5C16.75 21.4946 17.1451 22.4484 17.8483 23.1517C18.5516 23.8549 19.5054 24.25 20.5 24.25C21.4946 24.25 22.4484 23.8549 23.1517 23.1517C23.8549 22.4484 24.25 21.4946 24.25 20.5C24.25 19.5054 23.8549 18.5516 23.1517 17.8483C22.4484 17.1451 21.4946 16.75 20.5 16.75H5.5C4.50544 16.75 3.55161 17.1451 2.84835 17.8483C2.14509 18.5516 1.75 19.5054 1.75 20.5C1.75 21.4946 2.14509 22.4484 2.84835 23.1517C3.55161 23.8549 4.50544 24.25 5.5 24.25C6.49456 24.25 7.44839 23.8549 8.15165 23.1517C8.85491 22.4484 9.25 21.4946 9.25 20.5V5.5C9.25 4.50544 8.85491 3.55161 8.15165 2.84835C7.44839 2.14509 6.49456 1.75 5.5 1.75C4.50544 1.75 3.55161 2.14509 2.84835 2.84835C2.14509 3.55161 1.75 4.50544 1.75 5.5C1.75 6.49456 2.14509 7.44839 2.84835 8.15165C3.55161 8.85491 4.50544 9.25 5.5 9.25H20.5C21.4946 9.25 22.4484 8.85491 23.1517 8.15165C23.8549 7.44839 24.25 6.49456 24.25 5.5C24.25 4.50544 23.8549 3.55161 23.1517 2.84835C22.4484 2.14509 21.4946 1.75 20.5 1.75Z" stroke="#54BD95" stroke-width="2" stroke-linecap="round" stroke-linejoin="round"/>
    </symbol>
</svg>