<svg class="hidden">
    <symbol id='view__demo' width="34" height="34" viewBox="0 0 34 34" xmlns="http://www.w3.org/2000/svg">
        <path fill-rule="evenodd" clip-rule="evenodd" d="M17 1.16675C25.7432 1.16675 32.8333 8.25533 32.8333 17.0001C32.8333 25.7448 25.7432 32.8334 17 32.8334C8.25524 32.8334 1.16666 25.7448 1.16666 17.0001C1.16666 8.25533 8.25524 1.16675 17 1.16675Z" stroke="currentColor" stroke-width="1.5" stroke-linecap="round" stroke-linejoin="round"/>
        <path fill-rule="evenodd" clip-rule="evenodd" d="M22 16.9919C22 15.64 15.0709 11.3152 14.2848 12.0928C13.4988 12.8705 13.4232 21.0401 14.2848 21.891C15.1464 22.7449 22 18.3438 22 16.9919Z" stroke="currentColor" stroke-width="1.5" stroke-linecap="round" stroke-linejoin="round"/>
    </symbol>

    <symbol id="decor__yellow" width="74" height="74" viewBox="0 0 74 74" fill="none" xmlns="http://www.w3.org/2000/svg">
        <rect x="12.4582" y="12.458" width="48.5725" height="48.5725" rx="10" fill="#FBC75E"/>
        <g clip-path="url(#clip0_0_35)">
        <path d="M37.0574 33.5916C41.1995 33.5916 44.5574 32.4723 44.5574 31.0916C44.5574 29.7108 41.1995 28.5916 37.0574 28.5916C32.9152 28.5916 29.5574 29.7108 29.5574 31.0916C29.5574 32.4723 32.9152 33.5916 37.0574 33.5916Z" stroke="#F8F8FA" stroke-width="1.66667" stroke-linecap="round" stroke-linejoin="round"/>
        <path d="M44.5569 36.9248C44.5569 38.3081 41.2236 39.4248 37.0569 39.4248C32.8903 39.4248 29.5569 38.3081 29.5569 36.9248" stroke="#F8F8FA" stroke-width="1.66667" stroke-linecap="round" stroke-linejoin="round"/>
        <path d="M29.5569 31.0916V42.7582C29.5569 44.1416 32.8903 45.2582 37.0569 45.2582C41.2236 45.2582 44.5569 44.1416 44.5569 42.7582V31.0916" stroke="#F8F8FA" stroke-width="1.66667" stroke-linecap="round" stroke-linejoin="round"/>
        </g>
        <defs>
        <clipPath id="clip0_0_35">
        <rect width="20" height="20" fill="white" transform="translate(27.0574 26.9248)"/>
        </clipPath>
        </defs>
    </symbol>

    <symbol id='decor__red' width="41" height="41" viewBox="0 0 41 41" fill="none" xmlns="http://www.w3.org/2000/svg">
        <rect x="0.49469" y="0.494629" width="40" height="40" rx="10" fill="#FFAA94"/>
        <path d="M27.9947 22.9946C27.9947 23.4367 27.8191 23.8606 27.5065 24.1731C27.194 24.4857 26.7701 24.6613 26.328 24.6613H16.328L12.9947 27.9946V14.6613C12.9947 14.2193 13.1703 13.7953 13.4828 13.4828C13.7954 13.1702 14.2193 12.9946 14.6614 12.9946H26.328C26.7701 12.9946 27.194 13.1702 27.5065 13.4828C27.8191 13.7953 27.9947 14.2193 27.9947 14.6613V22.9946Z" stroke="white" stroke-width="1.66667" stroke-linecap="round" stroke-linejoin="round"/>
    </symbol>


    <symbol id='decor__violet' width="41" height="41" viewBox="0 0 41 41" fill="none" xmlns="http://www.w3.org/2000/svg">
        <rect x="0.494896" y="0.494629" width="40" height="40" rx="10" fill="#4535AF"/>
        <path d="M14 19.7331L18.1739 23.9998L26 15.9998" stroke="white" stroke-width="2"/>
    </symbol>

    <symbol id='collabs__unsplash' width="34" height="32" viewBox="0 0 34 32" fill="none" xmlns="http://www.w3.org/2000/svg">
        <rect x="11" width="12" height="9" fill="black"/>
        <rect y="23" width="34" height="9" fill="black"/>
        <rect x="24" y="14" width="10" height="18" fill="black"/>
        <rect y="14" width="10" height="18" fill="black"/>
    </symbol>

    <symbol id='collabs__notion' width="38" height="35" viewBox="0 0 38 35" fill="none" xmlns="http://www.w3.org/2000/svg">
        <path d="M28.3878 13.4545V28H26.044L19.1903 18.0923H19.0696V28H16.4347V13.4545H18.7926L25.6392 23.3693H25.767V13.4545H28.3878Z" fill="black"/>
        <rect x="9" y="8" width="28" height="26" stroke="black" stroke-width="2"/>
        <path d="M35.3389 6L29.624 1H2.66113L8.37598 6H35.3389Z" stroke="black" stroke-width="2"/>
        <path d="M8 7L0 0V28L8 35V7Z" fill="black"/>
    </symbol>

    <symbol id='collabs__intercom' width="30" height="30" viewBox="0 0 30 30" fill="none" xmlns="http://www.w3.org/2000/svg">
        <rect width="30" height="30" rx="3" fill="black"/>
        <rect x="4" y="7" width="2" height="12" fill="white"/>
        <rect x="9" y="4" width="2" height="18" fill="white"/>
        <rect x="14" y="4" width="2" height="18" fill="white"/>
        <rect x="19" y="4" width="2" height="18" fill="white"/>
        <path d="M5 24C7.83333 26.2639 16 29.4333 26 24" stroke="white" stroke-width="2" stroke-linecap="round"/>
        <rect x="24" y="7" width="2" height="12" fill="white"/>
    </symbol>

    <symbol id='collabs__descript' width="23" height="30" viewBox="0 0 23 30" fill="none" xmlns="http://www.w3.org/2000/svg">
        <path fill-rule="evenodd" clip-rule="evenodd" d="M17.0711 1.41723C18.9464 2.32466 20 3.5554 20 4.83871H10L0 4.83871C0 3.5554 1.05357 2.32466 2.92893 1.41722C4.8043 0.509791 7.34784 0 10 0C12.6522 0 15.1957 0.509791 17.0711 1.41723ZM2.92893 28.5828C1.05357 27.6753 0 26.4446 0 25.1613H10L20 25.1613C20 26.4446 18.9464 27.6753 17.0711 28.5828C15.1957 29.4902 12.6522 30 10 30C7.34783 30 4.8043 29.4902 2.92893 28.5828ZM23 17.4194V21.2903H17V17.4194H23ZM6 8.70968H0V12.5806H6V8.70968ZM11 8.70968H23V12.5806H11V8.70968ZM12 17.4194H0V21.2903H12V17.4194Z" fill="black"/>
    </symbol>

    <symbol id="collabs__grammarly" width="30" height="30" viewBox="0 0 30 30" fill="none" xmlns="http://www.w3.org/2000/svg">
        <circle cx="15" cy="15" r="15" fill="black"/>
        <path d="M21 15C21 18.866 17.866 22 14 22C10.134 22 7 18.866 7 15C7 11.134 10.134 8 14 8C15.9587 8 17.7295 8.80447 19 10.101" stroke="white" stroke-width="2"/>
        <path d="M17 17L21 15L23.5 18.5" stroke="white" stroke-width="2"/>
    </symbol>

    <symbol id='star' width="26" height="24" viewBox="0 0 26 24" xmlns="http://www.w3.org/2000/svg">
        <path d="M13 0L15.9187 8.98278H25.3637L17.7225 14.5344L20.6412 23.5172L13 17.9656L5.35879 23.5172L8.27747 14.5344L0.636266 8.98278H10.0813L13 0Z" fill="currentColor"/>
    </symbol>

    <symbol id='support__publishing' width="28" height="26" viewBox="0 0 28 26" fill="none" xmlns="http://www.w3.org/2000/svg">
      <path d="M26.5 13H21.5L17.75 24.25L10.25 1.75L6.5 13H1.5" stroke="#54BD95" stroke-width="2" stroke-linecap="round" stroke-linejoin="round"/>
    </symbol>

    <symbol id='support__analytics' width="28" height="28" viewBox="0 0 28 28" fill="none" xmlns="http://www.w3.org/2000/svg">
        <path d="M25.512 18.8626C24.7168 20.7432 23.473 22.4004 21.8894 23.6892C20.3057 24.9781 18.4305 25.8594 16.4276 26.2561C14.4247 26.6528 12.3551 26.5528 10.3997 25.9648C8.44436 25.3769 6.66281 24.3189 5.2108 22.8834C3.75879 21.4479 2.68055 19.6785 2.07032 17.73C1.4601 15.7815 1.33648 13.7132 1.71027 11.7059C2.08407 9.69857 2.9439 7.81338 4.21458 6.21513C5.48527 4.61689 7.12813 3.35424 8.99953 2.5376" stroke="#54BD95" stroke-width="2" stroke-linecap="round" stroke-linejoin="round"/>
        <path d="M26.5 14C26.5 12.3585 26.1767 10.733 25.5485 9.21646C24.9203 7.69989 23.9996 6.3219 22.8388 5.16117C21.6781 4.00043 20.3001 3.07969 18.7835 2.45151C17.267 1.82332 15.6415 1.5 14 1.5V14H26.5Z" stroke="#54BD95" stroke-width="2" stroke-linecap="round" stroke-linejoin="round"/>
    </symbol>

    <symbol id='support__engagement' width="26" height="26" viewBox="0 0 26 26" fill="none" xmlns="http://www.w3.org/2000/svg">
        <path d="M20.5 1.75C19.5054 1.75 18.5516 2.14509 17.8483 2.84835C17.1451 3.55161 16.75 4.50544 16.75 5.5V20.5C16.75 21.4946 17.1451 22.4484 17.8483 23.1517C18.5516 23.8549 19.5054 24.25 20.5 24.25C21.4946 24.25 22.4484 23.8549 23.1517 23.1517C23.8549 22.4484 24.25 21.4946 24.25 20.5C24.25 19.5054 23.8549 18.5516 23.1517 17.8483C22.4484 17.1451 21.4946 16.75 20.5 16.75H5.5C4.50544 16.75 3.55161 17.1451 2.84835 17.8483C2.14509 18.5516 1.75 19.5054 1.75 20.5C1.75 21.4946 2.14509 22.4484 2.84835 23.1517C3.55161 23.8549 4.50544 24.25 5.5 24.25C6.49456 24.25 7.44839 23.8549 8.15165 23.1517C8.85491 22.4484 9.25 21.4946 9.25 20.5V5.5C9.25 4.50544 8.85491 3.55161 8.15165 2.84835C7.44839 2.14509 6.49456 1.75 5.5 1.75C4.50544 1.75 3.55161 2.14509 2.84835 2.84835C2.14509 3.55161 1.75 4.50544 1.75 5.5C1.75 6.49456 2.14509 7.44839 2.84835 8.15165C3.55161 8.85491 4.50544 9.25 5.5 9.25H20.5C21.4946 9.25 22.4484 8.85491 23.1517 8.15165C23.8549 7.44839 24.25 6.49456 24.25 5.5C24.25 4.50544 23.8549 3.55161 23.1517 2.84835C22.4484 2.14509 21.4946 1.75 20.5 1.75Z" stroke="#54BD95" stroke-width="2" stroke-linecap="round" stroke-linejoin="round"/>
    </symbol>

    <symbol id='benefit' width="32" height="32" viewBox="0 0 32 32" fill="none" xmlns="http://www.w3.org/2000/svg">
        <path fill-rule="evenodd" clip-rule="evenodd" d="M16 32C24.8366 32 32 24.8366 32 16C32 7.16344 24.8366 0 16 0C7.16344 0 0 7.16344 0 16C0 24.8366 7.16344 32 16 32ZM15.6318 19.8961L21.8379 13.4961L20.4021 12.1039L14.8858 17.7926L11.5695 14.6357L10.1905 16.0843L14.2245 19.9243L14.9421 20.6074L15.6318 19.8961Z" fill="#54BD95"/>
    </symbol>

    <symbol id='benefit__message' width="40" height="40" viewBox="0 0 40 40" fill="none" xmlns="http://www.w3.org/2000/svg">
        <circle cx="20" cy="20" r="20" fill="#74C9A9"/>
        <path d="M27.5 19.5834C27.5029 20.6832 27.2459 21.7683 26.75 22.75C26.162 23.9265 25.2581 24.916 24.1395 25.6078C23.021 26.2995 21.7319 26.6662 20.4167 26.6667C19.3168 26.6696 18.2318 26.4126 17.25 25.9167L12.5 27.5L14.0833 22.75C13.5874 21.7683 13.3305 20.6832 13.3333 19.5834C13.3338 18.2682 13.7005 16.9791 14.3923 15.8605C15.084 14.7419 16.0735 13.838 17.25 13.25C18.2318 12.7541 19.3168 12.4972 20.4167 12.5H20.8333C22.5703 12.5959 24.2109 13.329 25.441 14.5591C26.671 15.7892 27.4042 17.4297 27.5 19.1667V19.5834Z" stroke="white" stroke-width="1.66667" stroke-linecap="round" stroke-linejoin="round"/>
    </symbol>

    <symbol id='benefit__decor' width="41" height="41" viewBox="0 0 41 41" fill="none" xmlns="http://www.w3.org/2000/svg">
        <rect x="0.494873" y="0.49469" width="40" height="40" rx="10" fill="#74C9A9"/>
        <path d="M26.3275 12.9945L14.6608 12.9945C13.7404 12.9945 12.9942 13.7407 12.9942 14.6612L12.9942 26.3279C12.9942 27.2483 13.7404 27.9945 14.6608 27.9945H26.3275C27.248 27.9945 27.9942 27.2483 27.9942 26.3279V14.6612C27.9942 13.7407 27.248 12.9945 26.3275 12.9945Z" stroke="white" stroke-width="1.66667" stroke-linecap="round" stroke-linejoin="round"/>
        <path d="M17.5779 18.8279C18.2682 18.8279 18.8279 18.2683 18.8279 17.5779C18.8279 16.8876 18.2682 16.3279 17.5779 16.3279C16.8875 16.3279 16.3279 16.8876 16.3279 17.5779C16.3279 18.2683 16.8875 18.8279 17.5779 18.8279Z" stroke="white" stroke-width="1.66667" stroke-linecap="round" stroke-linejoin="round"/>
        <path d="M27.9945 22.9946L23.8278 18.8279L14.6612 27.9946" stroke="white" stroke-width="1.66667" stroke-linecap="round" stroke-linejoin="round"/>
    </symbol>


    <symbol id='benefit__transfer' width="22" height="22" viewBox="0 0 22 22"  xmlns="http://www.w3.org/2000/svg">
        <path fill-rule="evenodd" clip-rule="evenodd" d="M1.83333 11C1.83333 5.9374 5.93739 1.83334 11 1.83334C16.0626 1.83334 20.1667 5.9374 20.1667 11C20.1667 16.0626 16.0626 20.1667 11 20.1667C5.93739 20.1667 1.83333 16.0626 1.83333 11ZM11 0.166672C5.01692 0.166672 0.166668 5.01692 0.166668 11C0.166668 16.9831 5.01692 21.8333 11 21.8333C16.9831 21.8333 21.8333 16.9831 21.8333 11C21.8333 5.01692 16.9831 0.166672 11 0.166672ZM10.9301 14.6944L16.7196 8.69437L15.2804 7.30564L10.1148 12.6591L6.61369 9.93773L5.38631 11.5168L9.59684 14.7896L10.3062 15.341L10.9301 14.6944Z" fill="#2B9B5B"/>
    </symbol>

    <symbol id='footer__decor' width="45" height="38" viewBox="0 0 45 38" fill="none" xmlns="http://www.w3.org/2000/svg">
        <path d="M11.5 0H21.5L14.5 38H0L11.5 0Z" fill="#D9D9D9"/>
        <path d="M35 0H45L38 38H23.5L35 0Z" fill="#D9D9D9"/>
    </symbol>

    <symbol id='footer__play' width="66" height="66" viewBox="0 0 66 66" fill="none" xmlns="http://www.w3.org/2000/svg">
        <circle cx="33" cy="33" r="32" stroke="white" stroke-width="2"/>
        <path d="M42 33L28.5 43.3923L28.5 22.6077L42 33Z" fill="white"/>
    </symbol>

    <symbol id='footer__form' width="73" height="86" viewBox="0 0 73 86" fill="none" xmlns="http://www.w3.org/2000/svg">
        <path d="M72.0585 20.8486V20.4268H72.0234C71.8125 15.2245 68.2974 10.0574 61.4255 6.103C47.3302 -2.03433 24.4824 -2.03433 10.4749 6.103C3.46239 10.1805 -0.017509 15.5233 6.62377e-05 20.8662V31.8859V32.0792V42.9055V43.0989V53.9252V54.1185V65.1382C0.0352167 70.4811 3.58541 75.8239 10.6331 79.8838C17.6983 83.9613 26.9253 86 36.1347 86C45.3617 86 54.5536 83.9613 61.5837 79.8838C68.5962 75.8064 72.0761 70.4635 72.0585 65.1382V54.1185V53.5034V43.0989V42.4486V32.044V31.4289V20.8486C72.0585 20.8662 72.0585 20.8486 72.0585 20.8486ZM17.8038 14.2403L19.7546 13.1155C20.2467 12.8343 21.02 12.8343 21.5297 13.1155L23.9375 14.504C24.4648 14.1876 25.0096 13.8888 25.5369 13.5725L23.1291 12.184C22.637 11.9028 22.637 11.4459 23.1291 11.1647L25.0799 10.0399C25.572 9.75865 26.3629 9.75865 26.855 10.0399L29.9307 11.8149L30.3349 11.6919C33.7797 10.6374 37.4353 10.1629 41.337 10.4441C44.3951 10.6726 47.1368 11.3931 49.6501 12.4477C50.6343 12.8519 51.5482 13.3088 52.3743 13.7834C54.5536 15.0488 56.2232 16.5251 57.5238 18.1948L57.7874 18.6517C58.0862 19.2668 57.7347 19.6887 56.6978 19.9347C55.6081 20.2159 54.5009 20.462 53.3936 20.708C52.6203 20.8662 52.0755 20.831 51.6009 20.5498C51.4779 20.4795 51.3725 20.3917 51.2494 20.3038C50.5113 19.6184 49.8434 18.8802 49.0525 18.2123C48.3495 17.5972 47.5762 17.0172 46.6975 16.5075C45.5375 15.8397 44.2018 15.2773 42.6024 14.8906C40.2122 14.2931 37.8747 14.4337 35.5196 14.9785L35.4317 14.9961L41.3897 18.4408C41.8818 18.722 41.8818 19.179 41.3897 19.4602L39.4389 20.585C38.9468 20.8662 38.1559 20.8662 37.6638 20.585L30.827 16.6481C30.3173 16.9469 29.7725 17.2633 29.2277 17.5796L36.0644 21.5165C36.5565 21.7977 36.5565 22.2546 36.0644 22.5358L34.1136 23.6607C33.6215 23.9419 32.8482 23.9419 32.3385 23.6607L26.0993 20.0577C24.7108 21.745 24.2715 23.4146 25.8357 25.1546C26.5035 25.8927 27.3647 26.543 28.3665 27.123C29.2453 27.6327 30.2119 28.072 31.2488 28.4763C32.4088 28.8981 33.6391 29.2847 34.8342 29.7241C35.0275 29.7944 35.1857 29.8647 35.3263 29.9526C35.8008 30.2338 35.8711 30.5501 35.5899 30.9895C35.1857 31.6574 34.7287 32.3077 34.2366 32.9404C33.8324 33.5204 33.0767 33.7313 31.987 33.5204C30.8973 33.2743 29.8252 32.9755 28.7707 32.6416C26.8374 32.0089 25.0975 31.2707 23.586 30.392C22.0043 29.4781 20.6685 28.4235 19.5964 27.2284C17.0832 24.3812 17.1359 21.4813 19.1922 18.5638C19.5964 17.9839 20.1589 17.4742 20.651 16.9293L17.7335 15.2421C17.3117 14.9785 17.3117 14.5215 17.8038 14.2403ZM10.6331 35.6118C24.746 43.7667 47.5586 43.7667 61.5837 35.6118C63.763 34.3464 65.5732 32.9404 67.0671 31.4641V32.0792C67.0847 35.7348 64.1672 39.5487 59.0704 42.5013C53.0245 46.0163 44.8872 47.9496 36.1347 47.9496C27.3823 47.9496 19.1922 46.0163 13.1112 42.5013C7.96165 39.5311 4.99143 35.6997 4.95628 32.0616V31.341C6.52048 32.8525 8.38345 34.3112 10.6331 35.6118ZM59.088 64.5231C53.0421 68.0381 44.9048 69.9714 36.1523 69.9714C27.3999 69.9714 19.2098 68.0381 13.1288 64.5231C7.97922 61.5529 5.00901 57.7215 4.97386 54.0834V53.5561C6.52048 55.0852 8.36588 56.5263 10.6331 57.8269C17.6983 61.9044 26.9253 63.9431 36.1347 63.9431C45.3617 63.9431 54.5536 61.9044 61.5837 57.8269C63.763 56.5615 65.5732 55.1555 67.0671 53.6791V54.1185C67.1023 57.7742 64.1848 61.5704 59.088 64.5231ZM59.088 53.521C53.0421 57.036 44.9048 58.9693 36.1523 58.9693C27.3999 58.9693 19.2098 57.036 13.1288 53.521C7.97922 50.5508 5.00901 46.7194 4.97386 43.0813V42.554C6.52048 44.0831 8.36588 45.5242 10.6331 46.8248C17.6983 50.9023 26.9253 52.941 36.1347 52.941C45.3617 52.941 54.5536 50.9023 61.5837 46.8248C63.763 45.5594 65.5732 44.1534 67.0671 42.6771V43.1164C67.1023 46.7545 64.1848 50.5508 59.088 53.521ZM59.088 75.5427C53.0421 79.0578 44.9048 80.9911 36.1523 80.9911C27.3999 80.9911 19.2098 79.0578 13.1288 75.5427C7.97922 72.5725 5.00901 68.7411 4.97386 65.1031V64.5758C6.52048 66.1048 8.36588 67.546 10.6331 68.8466C17.6983 72.924 26.9253 74.9628 36.1347 74.9628C45.3617 74.9628 54.5536 72.924 61.5837 68.8466C63.763 67.5812 65.5732 66.1751 67.0671 64.6988V65.1382C67.1023 68.7763 64.1848 72.5901 59.088 75.5427Z" fill="#54BD95"/>
    </symbol>

    <symbol id='footer__arrow' width="24" height="24" viewBox="0 0 24 24" fill="none" xmlns="http://www.w3.org/2000/svg">
        <path d="M5 12H19" stroke="white" stroke-width="2" stroke-linecap="round" stroke-linejoin="round"/>
        <path d="M12 5L19 12L12 19" stroke="white" stroke-width="2" stroke-linecap="round" stroke-linejoin="round"/>
    </symbol>


</svg>